<svg width="8px" height="14px" viewBox="0 0 8 14" version="1.1" xmlns="http://www.w3.org/2000/svg" xmlns:xlink="http://www.w3.org/1999/xlink">
    <!-- Generator: Sketch 49.2 (51160) - http://www.bohemiancoding.com/sketch -->
    <desc>Created with Sketch.</desc>
    <defs></defs>
    <g id="高保真原型" stroke="none" stroke-width="1" fill="none" fill-rule="evenodd">
        <g id="普通文档1-删除" transform="translate(-638.000000, -900.000000)" fill="#000000" fill-rule="nonzero">
            <g id="分页" transform="translate(551.000000, 896.000000)">
                <g id="上一页" transform="translate(91.000000, 11.000000) scale(-1, 1) translate(-91.000000, -11.000000) translate(83.000000, 3.000000)">
                    <path d="M11.2749063,1.84651563 C11.4683281,2.0399375 11.4683281,2.3509375 11.2749063,2.54434375 L5.81167188,8.00757813 L11.2749063,13.4708125 C11.4683281,13.6642344 11.4683281,13.9752344 11.2749063,14.1686406 C11.1857656,14.25825 11.0623594,14.3137031 10.9259844,14.3137031 C10.7896406,14.3137031 10.6662188,14.25825 10.5770781,14.1686563 L4.76490625,8.35648437 C4.67529687,8.26734375 4.61984375,8.1439375 4.61984375,8.0075625 C4.61984375,7.87121875 4.67529687,7.74779688 4.76489063,7.65865625 L10.5770625,1.84648438 C10.7704844,1.6530625 11.083375,1.6530625 11.2748906,1.84648438 L11.2749063,1.84651563 Z" id="Shape"></path>
                </g>
            </g>
        </g>
    </g>
</svg>