<svg width="16px" height="28px" viewBox="0 0 16 28" version="1.1" xmlns="http://www.w3.org/2000/svg" xmlns:xlink="http://www.w3.org/1999/xlink">
    <!-- Generator: Sketch 47.1 (45422) - http://www.bohemiancoding.com/sketch -->
    <desc>Created with Sketch.</desc>
    <defs></defs>
    <g id="back" stroke="none" stroke-width="1" fill="none" fill-rule="evenodd">
        <g id="path-back" transform="translate(-92.000000, -20.000000)" fill-rule="nonzero">
            <g id="return" transform="translate(83.000000, 18.000000)">
                <rect id="Rectangle-path" fill="#FBFBFB" opacity="0" x="2.84217094e-14" y="0" width="33" height="33"></rect>
                <path d="M10.4548523,17.3985381 C10.0835443,17.3985381 9.70886075,17.2620954 9.42531645,16.9892099 C8.85822785,16.4434389 8.85822785,15.5565611 9.42531645,15.0107901 L22.5189874,2.40932822 C23.086076,1.86355726 24.0075949,1.86355726 24.5746835,2.40932822 C25.1417722,2.95509919 25.1417722,3.84197702 24.5746835,4.38774798 L11.4810126,16.9892099 C11.1974683,17.2620954 10.8261603,17.3985381 10.4548523,17.3985381 L10.4548523,17.3985381 Z M23.5451477,29.3985381 C23.1738397,29.3985381 22.7991561,29.2620954 22.5156118,28.9892099 L9.42531645,16.387748 C8.85822785,15.841977 8.85822785,14.9550992 9.42531645,14.4093282 C9.99240505,13.8635573 10.913924,13.8635573 11.4810126,14.4093282 L24.5746835,27.0107901 C25.1417722,27.5565611 25.1417722,28.4434389 24.5746835,28.9892099 C24.2911392,29.2620954 23.9198312,29.3985382 23.5451477,29.3985381 Z" id="Shape" fill="#1D4CB5"></path>
            </g>
        </g>
    </g>
</svg>