
<svg width="16px" height="27px" viewBox="0 0 16 27" version="1.1" xmlns="http://www.w3.org/2000/svg" xmlns:xlink="http://www.w3.org/1999/xlink">
    <!-- Generator: Sketch 47.1 (45422) - http://www.bohemiancoding.com/sketch -->
    <desc>Created with Sketch.</desc>
    <defs></defs>
    <g id="back" stroke="none" stroke-width="1" fill="none" fill-rule="evenodd">
        <g id="goback" transform="translate(-92.000000, -20.000000)" fill-rule="nonzero" fill="#1D4CB5">
            <g id="return" transform="translate(83.000000, 18.000000)">
                <path d="M10.4548523,17 C10.0835443,17 9.70886075,16.8670886 9.42531645,16.6012658 C8.85822785,16.0696202 8.85822785,15.2056962 9.42531645,14.6740506 L22.5189874,2.39873417 C23.086076,1.86708861 24.0075949,1.86708861 24.5746835,2.39873417 C25.1417722,2.93037974 25.1417722,3.79430379 24.5746835,4.32594935 L11.4810126,16.6012658 C11.1974683,16.8670886 10.8261603,17 10.4548523,17 L10.4548523,17 Z M23.5451477,29 C23.1738397,29 22.7991561,28.8670886 22.5156118,28.6012658 L9.42531645,16.3259494 C8.85822785,15.7943038 8.85822785,14.9303798 9.42531645,14.3987342 C9.99240505,13.8670886 10.913924,13.8670886 11.4810126,14.3987342 L24.5746835,26.6740506 C25.1417722,27.2056962 25.1417722,28.0696202 24.5746835,28.6012658 C24.2911392,28.8670886 23.9198312,29 23.5451477,29 Z" id="Shape"></path>
            </g>
        </g>
    </g>
</svg>