<svg width="76px" height="64px" viewBox="0 0 76 64" version="1.1" xmlns="http://www.w3.org/2000/svg" xmlns:xlink="http://www.w3.org/1999/xlink">
    <!-- Generator: Sketch 49.2 (51160) - http://www.bohemiancoding.com/sketch -->
    <desc>Created with Sketch.</desc>
    <defs></defs>
    <g id="Symbols" stroke="none" stroke-width="1" fill="none" fill-rule="evenodd">
        <g id="创建文件夹" transform="translate(-164.000000, -64.000000)" fill-rule="nonzero">
            <g id="Group-24">
                <g transform="translate(165.000000, 58.000000)">
                    <rect id="Rectangle-26" fill="#D8D8D8" opacity="0" x="0" y="0" width="74" height="74"></rect>
                    <g id="文件" transform="translate(1.000000, 8.000000)" fill="#FFFFFF" stroke="#1D4CB5" stroke-linecap="round" stroke-linejoin="round" stroke-width="3">
                        <path d="M42.8108108,6.24 L70,6.24 C71.1045695,6.24 72,7.1354305 72,8.24 L72,24 C72,25.1045695 71.1045695,26 70,26 L40.8108108,26 L2,26 C0.8954305,26 1.3527075e-16,25.1045695 0,24 L0,2 C-1.3527075e-16,0.8954305 0.8954305,2.02906125e-16 2,0 L40.8108108,0 C41.9153803,-2.02906125e-16 42.8108108,0.8954305 42.8108108,2 L42.8108108,6.24 Z" id="Combined-Shape"></path>
                        <rect id="Rectangle-58" x="4.86486486" y="12" width="62.2702703" height="44" rx="2"></rect>
                        <rect id="Rectangle-58" x="0" y="21" width="72" height="39" rx="2"></rect>
                        <path d="M2,54 L39.5004883,54 L70,54 C71.1045695,54 72,54.8954305 72,56 L72,58 C72,59.1045695 71.1045695,60 70,60 L2,60 C0.8954305,60 1.3527075e-16,59.1045695 0,58 L0,56 C-1.3527075e-16,54.8954305 0.8954305,54 2,54 Z" id="Rectangle-58"></path>
                    </g>
                </g>
            </g>
        </g>
    </g>
</svg>