<svg width="27px" height="16px" viewBox="0 0 27 16" version="1.1" xmlns="http://www.w3.org/2000/svg" xmlns:xlink="http://www.w3.org/1999/xlink">
    <!-- Generator: Sketch 49.2 (51160) - http://www.bohemiancoding.com/sketch -->
    <desc>Created with Sketch.</desc>
    <defs></defs>
    <g id="Symbols" stroke="none" stroke-width="1" fill="none" fill-rule="evenodd">
        <g id="移动文件" transform="translate(-56.000000, -65.000000)" fill-rule="nonzero">
            <g id="全部文件">
                <g transform="translate(44.000000, 65.000000)">
                    <g id="文件夹" transform="translate(12.000000, 0.000000)">
                        <path d="M13.8309345,1.33333333 L24,1.33333333 C24.5522847,1.33333333 25,1.78104858 25,2.33333333 L25,3 C25,3.55228475 24.5522847,4 24,4 L13.2596391,4 L1.2819426,4 C0.83618323,4 0.674540111,3.95358719 0.511577148,3.86643365 C0.348614185,3.7792801 0.220719898,3.65138581 0.133566352,3.48842285 C0.0464128056,3.32545989 2.00617683e-17,3.16381677 -3.45280103e-17,2.7180574 L3.45280103e-17,1.2819426 C-2.00617683e-17,0.83618323 0.0464128056,0.674540111 0.133566352,0.511577148 C0.220719898,0.348614185 0.348614185,0.220719898 0.511577148,0.133566352 C0.674540111,0.0464128056 0.83618323,3.00926524e-17 1.2819426,-5.17920154e-17 L12.4447069,7.12833021e-16 C12.8225426,6.43425735e-16 12.959707,0.0299432627 13.1038228,0.0904916738 C13.2479387,0.151040085 13.3681624,0.242193644 13.4653668,0.364614238 C13.5625712,0.487034832 13.6284301,0.611023812 13.7304263,0.974832245 L13.8309345,1.33333333 Z" id="Combined-Shape" fill="#C9EAFE"></path>
                        <rect id="Rectangle-17" fill="#C9EAFE" x="0" y="2" width="25" height="14" rx="1"></rect>
                        <rect id="Rectangle-23" fill="#FFFFFF" x="1" y="2" width="24" height="13" rx="1"></rect>
                        <path d="M2.85791896,3 L25.8343887,3 C26.3866735,3 26.8343887,3.44771525 26.8343887,4 C26.8343887,4.05090783 26.8305013,4.10174133 26.8227604,4.15205718 L25.1304527,15.1520572 C25.0554017,15.6398889 24.6356521,16 24.142081,16 L1.16561126,16 C0.613326515,16 0.165611264,15.5522847 0.165611264,15 C0.165611264,14.9490922 0.169498666,14.8982587 0.177239567,14.8479428 L1.86954726,3.84794282 C1.94459829,3.36011113 2.36434788,3 2.85791896,3 Z" id="Rectangle" fill="#D7F0FF"></path>
                    </g>
                </g>
            </g>
        </g>
    </g>
</svg>