<svg width="19px" height="19px" viewBox="0 0 19 19" version="1.1" xmlns="http://www.w3.org/2000/svg" xmlns:xlink="http://www.w3.org/1999/xlink">
    <!-- Generator: Sketch 49.2 (51160) - http://www.bohemiancoding.com/sketch -->
    <desc>Created with Sketch.</desc>
    <defs></defs>
    <g id="高保真原型" stroke="none" stroke-width="1" fill="none" fill-rule="evenodd">
        <g id="所有文件-图标形式" transform="translate(-920.000000, -176.000000)" fill="#1D4CB5" fill-rule="nonzero">
            <g id="列表" transform="translate(919.000000, 173.000000)">
                <path d="M9.75767567,10.4194933 C9.75767567,11.2866944 9.04810414,11.996266 8.18090302,11.996266 L2.57677267,11.996266 C1.70954988,11.996266 1.00000002,11.2866944 1.00000002,10.4194933 L1,4.57677265 C1,3.70957153 1.70952819,3 2.57677265,3 L8.18094636,3 C9.04814748,3 9.75771901,3.70954986 9.75771901,4.57677265 L9.75767567,10.4194933 Z M9.75767567,20.4232707 C9.75767567,21.2904935 9.04810414,22 8.18090302,22 L2.57677267,22 C1.70954988,22 1.00000002,21.2904935 1.00000002,20.4232707 L1.00000002,14.5806584 C1.00000002,13.7134356 1.70952821,13.0039291 2.57677267,13.0039291 L8.18094638,13.0039291 C9.0481475,13.0039291 9.75771903,13.7134573 9.75771903,14.5806584 L9.75767567,20.4232707 Z M19.9999133,10.4194933 C19.9999133,11.2866944 19.2903851,11.996266 18.4231407,11.996266 L12.8186851,11.996266 C11.951419,11.996266 11.2419342,11.2866944 11.2419342,10.4194933 L11.2419342,4.57677265 C11.2419342,3.70957153 11.9514624,3 12.8186851,3 L18.423184,3 C19.2904068,3 19.999935,3.70954986 19.999935,4.57677265 L19.9999133,10.4194933 Z M20,20.4232707 C20,21.2904935 19.2904285,22 18.4232274,22 L12.8187068,22 C11.9514623,22 11.2419558,21.2904935 11.2419558,20.4232707 L11.2419558,14.5806584 C11.2419558,13.7134356 11.951484,13.0039291 12.8187068,13.0039291 L18.4232273,13.0039291 C19.2904501,13.0039291 20,13.7134573 20,14.5806584 L20,20.4232707 Z" id="Shape"></path>
            </g>
        </g>
    </g>
</svg>