<svg width="20px" height="18px" viewBox="0 0 20 18" version="1.1" xmlns="http://www.w3.org/2000/svg" xmlns:xlink="http://www.w3.org/1999/xlink">
    <!-- Generator: Sketch 49.2 (51160) - http://www.bohemiancoding.com/sketch -->
    <desc>Created with Sketch.</desc>
    <defs></defs>
    <g id="高保真原型" stroke="none" stroke-width="1" fill="none" fill-rule="evenodd">
        <g id="所有文件-列表形式" transform="translate(-957.000000, -177.000000)" fill="#1D4CB5" fill-rule="nonzero">
            <g id="列表" transform="translate(956.000000, 175.000000)">
                <path d="M19.2806637,5.34967692 L2.7193143,5.34967692 C1.97437137,5.34967692 1.37156207,4.74620807 1.37156207,4.0019247 C1.37156207,3.25764132 1.97437137,2.65417247 2.7193143,2.65417247 L19.2806637,2.65417247 C20.0256066,2.65417247 20.6284159,3.25764132 20.6284159,4.0019247 C20.6284159,4.74620807 20.0256286,5.34967692 19.2806637,5.34967692 Z M19.2806637,12.3477522 L2.7193143,12.3477522 C1.97437137,12.3477522 1.37156207,11.7442834 1.37156207,11 C1.37156207,10.2557166 1.97437137,9.65224777 2.7193143,9.65224777 L19.2806637,9.65224777 C20.0256066,9.65224777 20.6284159,10.2557166 20.6284159,11 C20.6284159,11.7442834 20.0256286,12.3477522 19.2806637,12.3477522 Z M19.2806637,19.3458275 L2.7193143,19.3458275 C1.97437137,19.3458275 1.37156207,18.7423587 1.37156207,17.9980753 C1.37156207,17.2537919 1.97437137,16.6503231 2.7193143,16.6503231 L19.2806637,16.6503231 C20.0256066,16.6503231 20.6284159,17.2537919 20.6284159,17.9980753 C20.6284379,18.7423587 20.0256286,19.3458275 19.2806637,19.3458275 Z" id="Shape"></path>
            </g>
        </g>
    </g>
</svg>