<svg width="25px" height="16px" viewBox="0 0 25 16" version="1.1" xmlns="http://www.w3.org/2000/svg" xmlns:xlink="http://www.w3.org/1999/xlink">
    <!-- Generator: Sketch 49.2 (51160) - http://www.bohemiancoding.com/sketch -->
    <desc>Created with Sketch.</desc>
    <defs></defs>
    <g id="Symbols" stroke="none" stroke-width="1" fill="none" fill-rule="evenodd">
        <g id="移动文件" transform="translate(-84.000000, -91.000000)" fill-rule="nonzero">
            <g id="全部文件">
                <g transform="translate(74.000000, 91.000000)">
                    <g id="文件夹" transform="translate(10.000000, 0.000000)">
                        <path d="M13.8309345,1.33333333 L24,1.33333333 C24.5522847,1.33333333 25,1.78104858 25,2.33333333 L25,3 C25,3.55228475 24.5522847,4 24,4 L13.2596391,4 L1.2819426,4 C0.83618323,4 0.674540111,3.95358719 0.511577148,3.86643365 C0.348614185,3.7792801 0.220719898,3.65138581 0.133566352,3.48842285 C0.0464128056,3.32545989 2.00617683e-17,3.16381677 -3.45280103e-17,2.7180574 L3.45280103e-17,1.2819426 C-2.00617683e-17,0.83618323 0.0464128056,0.674540111 0.133566352,0.511577148 C0.220719898,0.348614185 0.348614185,0.220719898 0.511577148,0.133566352 C0.674540111,0.0464128056 0.83618323,3.00926524e-17 1.2819426,-5.17920154e-17 L12.4447069,7.12833021e-16 C12.8225426,6.43425735e-16 12.959707,0.0299432627 13.1038228,0.0904916738 C13.2479387,0.151040085 13.3681624,0.242193644 13.4653668,0.364614238 C13.5625712,0.487034832 13.6284301,0.611023812 13.7304263,0.974832245 L13.8309345,1.33333333 Z" id="Combined-Shape" fill="#C9EAFE"></path>
                        <rect id="Rectangle" fill="#D7F0FF" x="0" y="3" width="25" height="13" rx="1"></rect>
                    </g>
                </g>
            </g>
        </g>
    </g>
</svg>