<svg width="22px" height="22px" viewBox="0 0 22 22" version="1.1" xmlns="http://www.w3.org/2000/svg" xmlns:xlink="http://www.w3.org/1999/xlink">
    <!-- Generator: Sketch 51.3 (57544) - http://www.bohemiancoding.com/sketch -->
    <title>消息提醒</title>
    <desc>Created with Sketch.</desc>
    <defs></defs>
    <g id="高保真原型" stroke="none" stroke-width="1" fill="none" fill-rule="evenodd">
        <g id="消息提醒" transform="translate(-2.000000, -1.000000)" fill-rule="nonzero">
            <rect id="Rectangle-path" fill="#404040" opacity="0" x="0" y="0" width="22" height="22"></rect>
            <path d="M19.034125,15.8310625 C18.7873125,15.4955625 18.513,15.0926875 18.2084375,14.6265625 C17.9135,14.179 17.631625,13.674375 17.3669375,13.12025 C17.1105,12.593625 16.8815625,12.0126875 16.6876875,11.391875 C16.5116875,10.82125 16.423,10.2293125 16.423,9.634625 C16.423,8.911375 16.3205625,8.243125 16.1170625,7.6498125 C15.9190625,7.060625 15.6475,6.524375 15.307875,6.0506875 C14.9655,5.581125 14.5550625,5.1803125 14.08825,4.8599375 C13.6640625,4.566375 13.198625,4.3374375 12.640375,4.1490625 C12.7551875,3.90225 12.82325,3.6293125 12.82325,3.3385 C12.82325,2.264625 11.950125,1.3915 10.87625,1.3915 C9.802375,1.3915 8.92925,2.264625 8.92925,3.3385 C8.92925,3.6265625 8.9959375,3.8995 9.109375,4.1449375 C9.0591875,4.1573125 9.0000625,4.1669375 8.955375,4.1793125 C8.4789375,4.3443125 8.0114375,4.587 7.55425,4.9066875 C7.0998125,5.2353125 6.7045,5.6271875 6.3765625,6.0665 C6.0314375,6.5278125 5.754375,7.0585625 5.553625,7.64225 C5.3405,8.2465625 5.234625,8.9244375 5.234625,9.6559375 C5.234625,10.27125 5.1459375,10.8686875 4.9713125,11.4255625 C4.7801875,12.024375 4.554,12.596375 4.2989375,13.1285 C4.054875,13.64 3.7833125,14.1370625 3.4705,14.6430625 C3.15975,15.1421875 2.8923125,15.5925 2.6805625,15.967875 C2.2969375,16.5639375 2.4475,17.062375 2.572625,17.2844375 C2.784375,17.6529375 3.1384375,17.898375 3.5729375,17.898375 L18.085375,17.898375 C18.28475,17.898375 18.481375,17.8014375 18.6525625,17.700375 C18.8299375,17.6034375 18.9811875,17.4384375 19.08775,17.2734375 C19.2094375,17.0905625 19.278875,16.869875 19.29125,16.63475 C19.3084375,16.3563125 19.21975,16.077875 19.034125,15.8310625 Z M10.877625,2.7548125 C11.198,2.7548125 11.4599375,3.015375 11.4599375,3.337125 C11.4599375,3.658875 11.198,3.9194375 10.877625,3.9194375 C10.55725,3.9194375 10.2953125,3.6575 10.2953125,3.337125 C10.2953125,3.01675 10.555875,2.7548125 10.877625,2.7548125 Z M3.9758125,16.5323125 C4.1683125,16.5323125 4.384875,15.7966875 4.629625,15.40275 C4.970625,14.85275 5.2641875,14.2938125 5.528875,13.7369375 C5.8100625,13.151875 6.059625,12.5104375 6.2720625,11.8476875 C6.4893125,11.1533125 6.5993125,10.4135625 6.5993125,9.66075 C6.5993125,9.08325 6.681125,8.5559375 6.843375,8.091875 C6.99875,7.6374375 7.209125,7.2325 7.4696875,6.88325 C7.715125,6.55325 8.0128125,6.2583125 8.3441875,6.018375 C8.6920625,5.7743125 9.0385625,5.5941875 9.3671875,5.479375 C9.5170625,5.4360625 9.981125,5.3838125 10.7958125,5.3838125 C11.559625,5.3838125 12.1611875,5.427125 12.2038125,5.429875 C12.5998125,5.5611875 12.970375,5.74475 13.3120625,5.982625 C13.6516875,6.2170625 13.952125,6.510625 14.2003125,6.851625 C14.458125,7.2105 14.6685,7.6250625 14.8225,8.086375 C14.9765,8.5408125 15.0555625,9.0619375 15.0555625,9.634625 C15.0555625,10.366125 15.164875,11.0928125 15.3814375,11.7954375 C15.5959375,12.4843125 15.851,13.13125 16.135625,13.7135625 C16.4264375,14.317875 16.7385625,14.9208125 17.0644375,15.4165 C17.326375,15.8159375 17.5649375,16.5323125 17.7945625,16.5323125 L3.9758125,16.5323125 Z M7.4669375,19.261 L14.289,19.261 L14.289,20.625 L7.4669375,20.625 L7.4669375,19.261 Z" id="Shape" fill="#404040"></path>
            <!-- <circle id="Oval-67" fill="#F5222D" cx="19" cy="4" r="2"></circle> -->
        </g>
    </g>
</svg>