<svg width="10px" height="6px" viewBox="0 0 10 6" version="1.1" xmlns="http://www.w3.org/2000/svg" xmlns:xlink="http://www.w3.org/1999/xlink">
    <!-- Generator: Sketch 49.2 (51160) - http://www.bohemiancoding.com/sketch -->
    <desc>Created with Sketch.</desc>
    <defs></defs>
    <g id="Symbols" stroke="none" stroke-width="1" fill="none" fill-rule="evenodd" fill-opacity="0.65">
        <g id="Dropdown/Button/Secondary/Small" transform="translate(-73.000000, -9.000000)" fill="#000000">
            <g id="Group" transform="translate(72.000000, 6.000000)">
                <path d="M6,7.83398743 L10.2131663,3.15479221 C10.3848565,2.96411096 10.6786166,2.94871564 10.8692978,3.12040582 C11.0599791,3.29209599 11.0753744,3.58585607 10.9036842,3.77653733 L6.4028041,8.7752711 C6.37980268,8.81317493 6.35094396,8.84839944 6.31629869,8.87959418 C6.22600946,8.96089097 6.11260888,9.00024123 6,8.99889768 C5.88739112,9.00024123 5.77399054,8.96089097 5.68370131,8.87959418 C5.64905604,8.84839944 5.62019732,8.81317493 5.5971959,8.7752711 L1.0963158,3.77653733 C0.924625624,3.58585607 0.940020937,3.29209599 1.13070219,3.12040582 C1.32138345,2.94871564 1.61514353,2.96411096 1.7868337,3.15479221 L6,7.83398743 Z" id="down"></path>
            </g>
        </g>
    </g>
</svg>