<svg width="18px" height="18px" viewBox="0 0 18 18" version="1.1" xmlns="http://www.w3.org/2000/svg" xmlns:xlink="http://www.w3.org/1999/xlink">

    <!-- Generator: Sketch 49.2 (51160) - http://www.bohemiancoding.com/sketch -->

    <desc>Created with Sketch.</desc>

    <defs></defs>

    <g id="高保真原型" stroke="none" stroke-width="1" fill="none" fill-rule="evenodd">

        <g id="新建项目" transform="translate(-907.000000, -880.000000)">

            <g id="已选择" transform="translate(907.000000, 876.000000)">

                <g id="Group-2" transform="translate(0.000000, 4.000000)">

                    <rect id="Rectangle-271-Copy-2" fill="#1D4CB5" x="0" y="0" width="18" height="18" rx="2"></rect>

                    <g id="Group" transform="translate(3.000000, 3.000000)">

                        <rect id="RectangleSelected" x="0" y="0" width="12" height="10"></rect>

                        <path d="M3.92250509,8.90561323 L10.3734123,1.74115497 C10.5861587,1.50487609 10.9501657,1.48579929 11.1864446,1.69854576 C11.4227235,1.91129222 11.4418003,2.27529919 11.2290538,2.51157808 L4.36324219,10.1368344 C4.28375814,10.2251104 4.18316057,10.2830684 4.07599867,10.3099461 C3.87048559,10.3697905 3.63961387,10.31214 3.48679198,10.1424141 L0.774801356,7.13044337 C0.562054891,6.89416449 0.581131688,6.53015752 0.817410575,6.31741105 C1.05368946,6.10466459 1.41769643,6.12374139 1.6304429,6.36002027 L3.92250509,8.90561323 Z" id="Combined-Shape" fill="#FFFFFF"></path>

                    </g>

                </g>

            </g>

        </g>

    </g>

</svg>
