
<svg width="20px" height="20px" viewBox="0 0 20 20" version="1.1" xmlns="http://www.w3.org/2000/svg" xmlns:xlink="http://www.w3.org/1999/xlink">
    <!-- Generator: Sketch 49.2 (51160) - http://www.bohemiancoding.com/sketch -->
    <desc>Created with Sketch.</desc>
    <defs></defs>
    <g id="高保真原型" stroke="none" stroke-width="1" fill="none" fill-rule="evenodd">
        <g id="项目" transform="translate(-980.000000, -172.000000)" fill="#108EE9" fill-rule="nonzero">
            <g id="设置" transform="translate(976.000000, 171.000000)">
                <path d="M22.4618359,9.19576367 L22.461793,9.19576367 L20.9192793,8.85319531 C20.7990957,8.4693125 20.6424102,8.10128516 20.4611465,7.74733008 L21.295793,6.35797852 C21.6075098,5.85954102 21.7642168,5.12731055 21.295793,4.65794141 L20.4452695,3.80829883 C20.2162031,3.57824414 19.9082891,3.48160742 19.5974746,3.48160742 C19.2755313,3.48160742 18.9496992,3.58677344 18.706625,3.75572656 L17.3537109,4.61750781 C17.0025918,4.43538477 16.6364766,4.27953711 16.2553223,4.15561523 L15.9089727,2.59539844 C15.8057188,2.02275391 15.3052617,1.4031875 14.6416309,1.4031875 L13.4399668,1.4031875 C12.7761641,1.4031875 12.3697227,2.03216406 12.2383027,2.60480859 L11.8523789,4.14622656 C11.445959,4.27577734 11.0543848,4.44187305 10.6826621,4.6381543 L9.29610352,3.75568359 C9.05201953,3.58670898 8.72717578,3.48156445 8.40424414,3.48156445 C8.09443945,3.48156445 7.78652539,3.57817969 7.5564707,3.80825586 L6.70691406,4.65789844 C6.23752344,5.12724609 6.39524023,5.85951953 6.70691406,6.35791406 L7.58463672,7.82052734 C7.42041016,8.15286914 7.27395117,8.49457813 7.16128711,8.85315234 L5.6197832,9.19574219 C5.04713867,9.299125 4.42750781,9.79943164 4.42750781,10.4632129 L4.42750781,11.664834 C4.42750781,12.3284648 5.05650586,12.7350352 5.62917188,12.8664551 L7.19033398,13.2559668 C7.29837891,13.5874277 7.43252734,13.9055898 7.58564648,14.2135039 L6.70695703,15.6779863 C6.39526172,16.1755 6.23844727,16.907752 6.70695703,17.3771211 L7.55748047,18.2267852 C7.78656836,18.4567539 8.09446094,18.5543789 8.40514648,18.5543789 C8.72721875,18.5543789 9.05292188,18.4492344 9.296125,18.2802812 L10.6855625,17.3940723 C11.0600781,17.5920938 11.4535,17.7601875 11.8627988,17.8897383 L12.2477344,19.4274395 C12.3791758,20.0000625 12.7855957,20.629082 13.4493984,20.629082 L14.651084,20.629082 C15.3147363,20.629082 15.8151934,20.0094727 15.9184258,19.4368496 L16.2647969,17.8719707 C16.6421699,17.749832 17.0045684,17.595832 17.3510254,17.4166309 L18.7066895,18.2802812 C18.9497422,18.4492773 19.2756172,18.5544219 19.5975391,18.5544219 C19.9083535,18.5544219 20.2162891,18.4567539 20.445334,18.2268281 L21.2958574,17.3771641 C21.7642813,16.9077949 21.6075742,16.175543 21.2958574,15.6779863 L20.4603301,14.2867227 C20.6283164,13.956293 20.773916,13.6127363 20.8911992,13.2559883 L22.4524902,12.8664336 C23.0251563,12.7350566 23.6541543,12.3284863 23.6541543,11.6648125 L23.6541543,10.4631914 C23.6540898,9.79947461 23.0345234,9.29914648 22.4618359,9.19576367 Z M14.0576641,13.922498 C12.4550801,13.922498 11.1501191,12.6213613 11.1501191,11.0235898 C11.1501191,9.42581836 12.4550586,8.12558398 14.0576641,8.12558398 C15.6601406,8.12558398 16.9642207,9.42581836 16.9642207,11.0235898 C16.9642207,12.6213613 15.6601406,13.922498 14.0576641,13.922498 Z" id="Shape"></path>
            </g>
        </g>
    </g>
</svg>