<svg width="80px" height="80px" viewBox="0 0 80 80" version="1.1" xmlns="http://www.w3.org/2000/svg" xmlns:xlink="http://www.w3.org/1999/xlink">
    <!-- Generator: Sketch 47.1 (45422) - http://www.bohemiancoding.com/sketch -->
    <desc>Created with Sketch.</desc>
    <defs>
        <filter x="-20.3%" y="-17.2%" width="140.6%" height="140.6%" filterUnits="objectBoundingBox" id="filter-1">
            <feOffset dx="0" dy="2" in="SourceAlpha" result="shadowOffsetOuter1"></feOffset>
            <feGaussianBlur stdDeviation="4" in="shadowOffsetOuter1" result="shadowBlurOuter1"></feGaussianBlur>
            <feColorMatrix values="0 0 0 0 0   0 0 0 0 0   0 0 0 0 0  0 0 0 0.3 0" type="matrix" in="shadowBlurOuter1" result="shadowMatrixOuter1"></feColorMatrix>
            <feMerge>
                <feMergeNode in="shadowMatrixOuter1"></feMergeNode>
                <feMergeNode in="SourceGraphic"></feMergeNode>
            </feMerge>
        </filter>
    </defs>
    <g id="高保真原型" stroke="none" stroke-width="1" fill="none" fill-rule="evenodd">
        <g id="进度" transform="translate(-1017.000000, -1085.000000)">
            <g id="置顶" filter="url(#filter-1)" transform="translate(1025.000000, 1091.000000)">
                <path d="M32,64 C14.326888,64 0,49.673112 0,32 C0,14.326888 14.326888,0 32,0 C49.673112,0 64,14.326888 64,32 C64,49.673112 49.673112,64 32,64 Z M17.0000657,38.183911 L17,38.184012 C17.000657,38.6497611 17.1707758,39.1152747 17.5123931,39.4689115 C18.1933283,40.1786085 19.29419,40.1767573 19.9729244,39.4649736 L31.4832917,27.3926195 L43.0315325,39.4280179 C43.7124678,40.1377149 44.814512,40.1358637 45.4920639,39.42408 C46.1707983,38.7121617 46.169123,37.561218 45.488155,36.8514874 L32.7071028,23.5310885 C32.0261676,22.8213915 30.9241562,22.8232427 30.2465714,23.5350264 L17.5073345,36.8962179 C17.1680166,37.2521434 16.9993759,37.7181955 17.0000657,38.183911 Z" id="Combined-Shape" fill="#D7F0FF"></path>
                <g id="返回" transform="translate(15.000000, 13.000000)" fill-rule="nonzero" fill="#000000" opacity="0">
                    <rect id="Rectangle-path" x="0" y="0" width="34" height="34"></rect>
                </g>
            </g>
        </g>
    </g>
</svg>