
<svg width="16px" height="19px" viewBox="0 0 16 19" version="1.1" xmlns="http://www.w3.org/2000/svg" xmlns:xlink="http://www.w3.org/1999/xlink">
    <!-- Generator: Sketch 49.2 (51160) - http://www.bohemiancoding.com/sketch -->
    <desc>Created with Sketch.</desc>
    <defs></defs>
    <g id="高保真原型" stroke="none" stroke-width="1" fill="none" fill-rule="evenodd">
        <g id="项目" transform="translate(-930.000000, -172.000000)" fill="#108EE9" fill-rule="nonzero">
            <g id="回收站" transform="translate(919.000000, 171.000000)">
                <path d="M12.7948396,17.066848 C12.7948396,18.2691389 13.8007934,19.25 15.0469078,19.25 L22.9443386,19.25 C24.1904531,19.25 25.2051163,18.2691389 25.2051163,17.066848 L25.2051163,8.36457801 L12.7948396,8.36457801 L12.7948396,17.066848 Z M21.2563789,9.99132582 C21.2563789,9.69102966 21.5089974,9.44706961 21.8204874,9.44706961 C22.1319774,9.44706961 22.3845959,9.69102966 22.3845959,9.99132582 L22.3845959,16.5225918 C22.3845959,16.8234198 22.1319774,17.0668693 21.8204874,17.0668693 C21.5089974,17.0668693 21.2563789,16.8234198 21.2563789,16.5225918 L21.2563789,9.99132582 Z M18.4358805,9.99132582 C18.4358805,9.69102966 18.6884769,9.44706961 18.999989,9.44706961 C19.311479,9.44706961 19.5640754,9.69102966 19.5640754,9.99132582 L19.5640754,16.5225918 C19.5640754,16.8234198 19.311479,17.0668693 18.999989,17.0668693 C18.6884769,17.0668693 18.4358805,16.8234198 18.4358805,16.5225918 L18.4358805,9.99132582 Z M15.61536,9.99132582 C15.61536,9.69102966 15.8679785,9.44706961 16.1794685,9.44706961 C16.4909585,9.44706961 16.743577,9.69102966 16.743577,9.99132582 L16.743577,16.5225918 C16.743577,16.8234198 16.4909585,17.0668693 16.1794685,17.0668693 C15.8679785,17.0668693 15.61536,16.8234198 15.61536,16.5225918 L15.61536,9.99132582 Z M25.2007506,4.01042199 L21.8204874,4.01042199 L21.8204874,2.91580366 C21.8204874,2.31465819 21.3109729,1.83333333 20.6879267,1.83333333 L17.3033418,1.83333333 C16.6802736,1.83333333 16.1794906,2.31465819 16.1794906,2.91580366 L16.1794906,4.01040071 L12.7905179,4.01040071 C12.1674497,4.01040071 11.6666667,4.49174684 11.6666667,5.09287103 L11.6666667,6.181426 C11.6666667,6.78257147 12.1668984,7.27602305 12.789658,7.27602305 L25.2018971,7.27602305 C25.8243701,7.27602305 26.3333333,6.78257147 26.3333333,6.181426 L26.3333333,5.09287103 C26.3333333,4.49176811 25.8238188,4.01040071 25.2007726,4.01040071 L25.2007506,4.01042199 Z M20.6922924,4.01042199 L17.3076635,4.01042199 L17.3076635,3.46005986 C17.3076635,3.1592531 17.5558941,2.92186702 17.8674283,2.92186702 L20.1238182,2.92186702 C20.4353302,2.92186702 20.6922924,3.1592531 20.6922924,3.46005986 L20.6922924,4.01042199 Z" id="Shape"></path>
            </g>
        </g>
    </g>
</svg>