
<svg width="123px" height="80px" viewBox="0 0 123 80" version="1.1" xmlns="http://www.w3.org/2000/svg" xmlns:xlink="http://www.w3.org/1999/xlink">
    <!-- Generator: Sketch 49.2 (51160) - http://www.bohemiancoding.com/sketch -->
    <desc>Created with Sketch.</desc>
    <defs>
        <filter x="-2.5%" y="-1.3%" width="105.0%" height="107.8%" filterUnits="objectBoundingBox" id="filter-1">
            <feOffset dx="0" dy="1" in="SourceAlpha" result="shadowOffsetOuter1"></feOffset>
            <feGaussianBlur stdDeviation="0.5" in="shadowOffsetOuter1" result="shadowBlurOuter1"></feGaussianBlur>
            <feColorMatrix values="0 0 0 0 0   0 0 0 0 0   0 0 0 0 0  0 0 0 0.05 0" type="matrix" in="shadowBlurOuter1" result="shadowMatrixOuter1"></feColorMatrix>
            <feMerge>
                <feMergeNode in="shadowMatrixOuter1"></feMergeNode>
                <feMergeNode in="SourceGraphic"></feMergeNode>
            </feMerge>
        </filter>
        <path d="M65.6537037,4.375 L119,4.375 C120.104569,4.375 121,5.2704305 121,6.375 L121,19 C121,20.1045695 120.104569,21 119,21 L67.3344037,21 L2.5638852,21 C1.67236646,21 1.34908022,20.9071744 1.0231543,20.7328673 C0.697228371,20.5585602 0.441439796,20.3027716 0.267132704,19.9768457 C0.0928256111,19.6509198 4.01235366e-17,19.3276335 -6.90560205e-17,18.4361148 L6.90560205e-17,2.5638852 C-4.01235366e-17,1.67236646 0.0928256111,1.34908022 0.267132704,1.0231543 C0.441439796,0.697228371 0.697228371,0.441439796 1.0231543,0.267132704 C1.34908022,0.0928256111 1.67236646,6.01853049e-17 2.5638852,-1.03584031e-16 L62.4680383,4.58103847e-15 C63.2347077,1.71644684e-15 63.5131729,0.0623109769 63.8048409,0.187495628 C64.096509,0.312680278 64.3387946,0.500738603 64.5324228,0.752233298 C64.726051,1.00372799 64.8554956,1.25803024 65.0456904,2.0007333 L65.6537037,4.375 Z" id="path-2"></path>
        <rect id="path-3" x="5" y="8" width="111" height="21" rx="2"></rect>
        <filter x="-5.4%" y="-19.0%" width="110.8%" height="157.1%" filterUnits="objectBoundingBox" id="filter-4">
            <feOffset dx="0" dy="2" in="SourceAlpha" result="shadowOffsetOuter1"></feOffset>
            <feGaussianBlur stdDeviation="1" in="shadowOffsetOuter1" result="shadowBlurOuter1"></feGaussianBlur>
            <feComposite in="shadowBlurOuter1" in2="SourceAlpha" operator="out" result="shadowBlurOuter1"></feComposite>
            <feColorMatrix values="0 0 0 0 0   0 0 0 0 0   0 0 0 0 0  0 0 0 0.05 0" type="matrix" in="shadowBlurOuter1" result="shadowMatrixOuter1"></feColorMatrix>
            <feOffset dx="0" dy="0" in="SourceAlpha" result="shadowOffsetOuter2"></feOffset>
            <feGaussianBlur stdDeviation="1" in="shadowOffsetOuter2" result="shadowBlurOuter2"></feGaussianBlur>
            <feComposite in="shadowBlurOuter2" in2="SourceAlpha" operator="out" result="shadowBlurOuter2"></feComposite>
            <feColorMatrix values="0 0 0 0 0   0 0 0 0 0   0 0 0 0 0  0 0 0 0.03 0" type="matrix" in="shadowBlurOuter2" result="shadowMatrixOuter2"></feColorMatrix>
            <feMerge>
                <feMergeNode in="shadowMatrixOuter1"></feMergeNode>
                <feMergeNode in="shadowMatrixOuter2"></feMergeNode>
            </feMerge>
        </filter>
        <rect id="path-5" x="5" y="13" width="111" height="17" rx="2"></rect>
        <filter x="-5.4%" y="-23.5%" width="110.8%" height="170.6%" filterUnits="objectBoundingBox" id="filter-6">
            <feOffset dx="0" dy="2" in="SourceAlpha" result="shadowOffsetOuter1"></feOffset>
            <feGaussianBlur stdDeviation="1" in="shadowOffsetOuter1" result="shadowBlurOuter1"></feGaussianBlur>
            <feComposite in="shadowBlurOuter1" in2="SourceAlpha" operator="out" result="shadowBlurOuter1"></feComposite>
            <feColorMatrix values="0 0 0 0 0   0 0 0 0 0   0 0 0 0 0  0 0 0 0.05 0" type="matrix" in="shadowBlurOuter1" result="shadowMatrixOuter1"></feColorMatrix>
            <feOffset dx="0" dy="0" in="SourceAlpha" result="shadowOffsetOuter2"></feOffset>
            <feGaussianBlur stdDeviation="1" in="shadowOffsetOuter2" result="shadowBlurOuter2"></feGaussianBlur>
            <feComposite in="shadowBlurOuter2" in2="SourceAlpha" operator="out" result="shadowBlurOuter2"></feComposite>
            <feColorMatrix values="0 0 0 0 0   0 0 0 0 0   0 0 0 0 0  0 0 0 0.03 0" type="matrix" in="shadowBlurOuter2" result="shadowMatrixOuter2"></feColorMatrix>
            <feMerge>
                <feMergeNode in="shadowMatrixOuter1"></feMergeNode>
                <feMergeNode in="shadowMatrixOuter2"></feMergeNode>
            </feMerge>
        </filter>
        <rect id="path-7" x="0" y="16" width="121" height="61" rx="4"></rect>
        <filter x="-1.7%" y="-1.6%" width="103.3%" height="106.6%" filterUnits="objectBoundingBox" id="filter-8">
            <feOffset dx="0" dy="1" in="SourceAlpha" result="shadowOffsetOuter1"></feOffset>
            <feGaussianBlur stdDeviation="0.5" in="shadowOffsetOuter1" result="shadowBlurOuter1"></feGaussianBlur>
            <feComposite in="shadowBlurOuter1" in2="SourceAlpha" operator="out" result="shadowBlurOuter1"></feComposite>
            <feColorMatrix values="0 0 0 0 0.592156863   0 0 0 0 0.603921569   0 0 0 0 0.607843137  0 0 0 0.1 0" type="matrix" in="shadowBlurOuter1"></feColorMatrix>
        </filter>
    </defs>
    <g id="高保真原型" stroke="none" stroke-width="1" fill="none" fill-rule="evenodd">
        <g id="首页" transform="translate(-201.000000, -238.000000)" fill-rule="nonzero">
            <g id="项目文件夹" transform="translate(195.000000, 234.000000)">
                <g id="项目4">
                    <g filter="url(#filter-1)" transform="translate(7.000000, 4.000000)">
                        <g id="Combined-Shape">
                            <use fill="#C9EAFE" fill-rule="evenodd" xlink:href="#path-2"></use>
                            <path stroke="#2654B9" stroke-width="2" d="M119,5.375 L64.8775193,5.375 L64.0769507,2.24881267 C63.9329833,1.68662586 63.8620138,1.52068364 63.7400588,1.36228191 C63.6505495,1.24602234 63.5452625,1.16430023 63.4104318,1.10643057 C63.2267272,1.02758411 63.0483663,1 62.4680383,1 L2.5638852,1 C1.90203328,1 1.70048072,1.03892159 1.49475316,1.1489459 C1.3430957,1.2300532 1.2300532,1.3430957 1.1489459,1.49475316 C1.03892159,1.70048072 1,1.90203328 1,2.5638852 L1,18.4361148 C1,19.0979667 1.03892159,19.2995193 1.1489459,19.5052468 C1.2300532,19.6569043 1.3430957,19.7699468 1.49475316,19.8510541 C1.70048072,19.9610784 1.90203328,20 2.5638852,20 L119,20 C119.552285,20 120,19.5522847 120,19 L120,6.375 C120,5.82271525 119.552285,5.375 119,5.375 Z"></path>
                        </g>
                        <g id="Rectangle">
                            <use fill="black" fill-opacity="1" filter="url(#filter-4)" xlink:href="#path-3"></use>
                            <use fill="#FFFFFF" fill-rule="evenodd" xlink:href="#path-3"></use>
                            <rect stroke="#2654B9" stroke-width="2" x="6" y="9" width="109" height="19" rx="2"></rect>
                        </g>
                        <g id="Rectangle">
                            <use fill="black" fill-opacity="1" filter="url(#filter-6)" xlink:href="#path-5"></use>
                            <use fill="#FFFFFF" fill-rule="evenodd" xlink:href="#path-5"></use>
                            <rect stroke="#2654B9" stroke-width="2" x="6" y="14" width="109" height="15" rx="2"></rect>
                        </g>
                        <g id="Rectangle">
                            <use fill="black" fill-opacity="1" filter="url(#filter-8)" xlink:href="#path-7"></use>
                            <use fill="#D7F0FF" fill-rule="evenodd" xlink:href="#path-7"></use>
                            <rect stroke="#2654B9" stroke-width="2" x="1" y="17" width="119" height="59" rx="4"></rect>
                        </g>
                        <rect id="Rectangle-75" fill="#2654B9" x="2" y="67" width="117" height="2"></rect>
                        <rect id="Rectangle-75" fill="#2654B9" x="2" y="62" width="117" height="2"></rect>
                    </g>
                </g>
            </g>
        </g>
    </g>
</svg>