
<svg width="133px" height="86px" viewBox="0 0 133 86" version="1.1" xmlns="http://www.w3.org/2000/svg" xmlns:xlink="http://www.w3.org/1999/xlink">
    <!-- Generator: Sketch 49.2 (51160) - http://www.bohemiancoding.com/sketch -->
    <desc>Created with Sketch.</desc>
    <defs></defs>
    <g id="高保真原型" stroke="none" stroke-width="1" fill="none" fill-rule="evenodd">
        <g id="首页" transform="translate(-646.000000, -235.000000)" fill-rule="nonzero">
            <g id="项目文件夹" transform="translate(195.000000, 234.000000)">
                <g id="项目3" transform="translate(450.000000, 0.000000)">
                    <rect id="Rectangle-67" fill="#C9ACAC" opacity="0" x="0" y="0" width="135" height="86"></rect>
                    <path d="M116.942133,36.4747547 C115.441199,37.8080822 113.4648,38.6179061 111.299257,38.6179061 C108.978879,38.6179061 106.875661,37.6881391 105.341832,36.1808361 C103.588171,37.6992343 101.300997,38.6179061 98.7992567,38.6179061 C93.2764092,38.6179061 88.7992567,34.1407536 88.7992567,28.6179061 C88.7992567,23.0950586 93.2764092,18.6179061 98.7992567,18.6179061 C102.159108,18.6179061 105.131953,20.2748812 106.945199,22.8162402 C108.218662,22.0552249 109.707889,21.6179061 111.299257,21.6179061 C115.231857,21.6179061 118.540695,24.2885533 119.511057,27.915136 C120.071684,27.7224891 120.673257,27.6179061 121.299257,27.6179061 C124.336823,27.6179061 126.799257,30.08034 126.799257,33.1179061 C126.799257,36.1554722 124.336823,38.6179061 121.299257,38.6179061 C119.525511,38.6179061 117.947875,37.778261 116.942133,36.4747547 Z" id="Combined-Shape" stroke="#2654B9" stroke-width="2" fill="#FFFFFF" transform="translate(107.799257, 28.617906) scale(-1, 1) rotate(-5.000000) translate(-107.799257, -28.617906) "></path>
                    <polygon id="Path-134" stroke="#2654B9" stroke-width="2" fill="#B6E4FF" stroke-linecap="round" stroke-linejoin="round" points="2.04785156 85.1376953 28.8261719 40 68.7216797 85.1376953"></polygon>
                    <path d="M12.5931256,67.3625189 L28.8261719,40 L52.0015789,66.2206077 C51.8005794,66.396048 51.5920453,66.5725121 51.3759766,66.75 C46.1748047,71.0224609 43.5400391,63.8349609 36.7929688,63.8349609 C30.0458984,63.8349609 25.546875,69.6650391 19.7265625,69.6650391 C17.087647,69.6650391 14.7237608,68.4225891 12.5931256,67.3625189 Z" id="Combined-Shape" stroke="#2654B9" stroke-width="2" fill="#62C7FF" stroke-linecap="round" stroke-linejoin="round"></path>
                    <polygon id="Path-134" stroke="#2654B9" stroke-width="2" fill="#B6E4FF" stroke-linecap="round" stroke-linejoin="round" transform="translate(99.336914, 62.568848) scale(-1, 1) translate(-99.336914, -62.568848) " points="66 85.1376953 92.7783203 40 132.673828 85.1376953"></polygon>
                    <path d="M86.5964808,61.8348794 L105.895508,40 L122.044212,67.2203521 C116.853419,69.0890205 111.735803,69.1120002 108.943359,65.3232422 C105.390625,60.5029297 104.983398,59.5751953 97.0097656,62.4492187 C93.5347756,63.7017473 90.0636807,63.4969675 86.5964808,61.8348794 Z" id="Combined-Shape" stroke="#2654B9" stroke-width="2" fill="#62C7FF" stroke-linecap="round" stroke-linejoin="round"></path>
                    <path d="M28.9208984,40.2392578 L44.7285156,85.3183594" id="Path-140" stroke="#2654B9" stroke-width="2"></path>
                    <polygon id="Path-134" stroke="#2654B9" stroke-width="2" fill="#D7F0FF" stroke-linecap="round" stroke-linejoin="round" points="29 85.1376953 70.9365234 2.45507812 106.673828 85.1376953"></polygon>
                    <path d="M45.9636553,51.6919229 L70.9365234,2.45507812 L91.2469748,49.4457869 C87.0972245,52.1497004 82.9787667,52.9998027 78.8916016,51.9960938 C69.9169922,49.7921467 67.2675781,57.5126953 58.0605469,59.3271484 C50.8854688,60.7411594 48.3109207,55.6087414 45.9636553,51.6919229 Z" id="Combined-Shape" stroke="#2654B9" stroke-width="2" fill="#62C7FF" stroke-linecap="round" stroke-linejoin="round"></path>
                    <polygon id="Path-138" stroke="#2654B9" stroke-width="2" fill="#B6E4FF" stroke-linecap="round" stroke-linejoin="round" points="124.368164 85.1376953 106.680664 85.1376953 71.3007812 2.81347656"></polygon>
                    <path d="M91.4320116,49.6561362 L71.3007812,2.81347656 L103.845062,53.2999019 C102.89993,54.0157836 101.862383,54.5072877 100.732422,54.7744141 C94.9179992,56.1489614 94.3395726,47.6874677 91.4320116,49.6561362 Z" id="Combined-Shape" stroke="#2654B9" stroke-width="2" fill="#4A90E2" stroke-linecap="round" stroke-linejoin="round"></path>
                    <path d="M106.027344,40.5107422 L106.027344,56.2792969" id="Path-141" stroke="#2654B9" stroke-width="2"></path>
                    <path d="M48.2774239,37.6881977 C46.1242222,39.7402153 43.2092303,41 40,41 C36.8650495,41 34.0108745,39.7978576 31.8733067,37.8294048 C29.4579589,39.8108006 26.3678556,41 23,41 C15.2680135,41 9,34.7319865 9,27 C9,19.2680135 15.2680135,13 23,13 C27.5459721,13 31.5858813,15.1667124 34.1433595,18.523769 C35.8756237,17.5532844 37.8731986,17 40,17 C45.7781143,17 50.6024009,21.083822 51.7439739,26.52258 C52.5971221,26.1853156 53.5269196,26 54.5,26 C58.6421356,26 62,29.3578644 62,33.5 C62,37.6421356 58.6421356,41 54.5,41 C51.9089497,41 49.6247799,39.6860882 48.2774239,37.6881977 Z" id="Combined-Shape" stroke="#2654B9" stroke-width="2" fill="#FFFFFF"></path>
                    <circle id="Oval-74" stroke="#2654B9" stroke-width="2" fill="#D7F0FF" cx="24.5" cy="13.5" r="11.5"></circle>
                </g>
            </g>
        </g>
    </g>
</svg>