
<svg width="122px" height="86px" viewBox="0 0 122 86" version="1.1" xmlns="http://www.w3.org/2000/svg" xmlns:xlink="http://www.w3.org/1999/xlink">
    <!-- Generator: Sketch 49.2 (51160) - http://www.bohemiancoding.com/sketch -->
    <desc>Created with Sketch.</desc>
    <defs>
        <rect id="path5-1" x="10" y="0" width="71" height="86" rx="2"></rect>
        <rect id="path5-2" x="2" y="0" width="70" height="86" rx="2"></rect>
        <rect id="path5-3" x="2" y="0" width="64" height="86" rx="2"></rect>
        <rect id="path5-4" x="0" y="10" width="12" height="5" rx="2"></rect>
        <rect id="path5-5" x="0" y="25" width="12" height="5" rx="2"></rect>
        <rect id="path5-6" x="0" y="40" width="12" height="5" rx="2"></rect>
        <rect id="path5-7" x="0" y="55" width="12" height="5" rx="2"></rect>
        <rect id="path5-8" x="0" y="70" width="12" height="5" rx="2"></rect>
        <rect id="path5-9" x="0" y="0" width="10" height="73" rx="4.5"></rect>
        <rect id="path5-10" x="9" y="3" width="5" height="33" rx="2.5"></rect>
        <rect id="path5-11" x="0" y="23" width="10" height="6"></rect>
    </defs>
    <g id="icon5" stroke="none" stroke-width="1" fill="none" fill-rule="evenodd">
        <g id="首页" transform="translate(-202.000000, -409.000000)" fill-rule="nonzero">
            <g id="项目文件夹" transform="translate(194.000000, 234.000000)">
                <g id="项目5" transform="translate(0.000000, 175.000000)">
                    <rect id="Rectangle-66" fill="#D8D8D8" opacity="0" x="0" y="0" width="135" height="86"></rect>
                    <g id="notebook" transform="translate(8.000000, 0.000000)">
                        <g id="Rectangle-70">
                            <use fill="#B6E4FF" fill-rule="evenodd" xlink:href="#path5-1"></use>
                            <rect stroke="#2654B9" stroke-width="2" x="11" y="1" width="69" height="84" rx="2"></rect>
                        </g>
                        <g id="Rectangle-70">
                            <use fill="#62C7FF" fill-rule="evenodd" xlink:href="#path5-2"></use>
                            <rect stroke="#2654B9" stroke-width="2" x="3" y="1" width="68" height="84" rx="2"></rect>
                        </g>
                        <g id="Rectangle-70">
                            <use fill="#B6E4FF" fill-rule="evenodd" xlink:href="#path5-3"></use>
                            <rect stroke="#2654B9" stroke-width="2" x="3" y="1" width="62" height="84" rx="2"></rect>
                        </g>
                        <g id="Rectangle-71">
                            <use fill="#FFFFFF" fill-rule="evenodd" xlink:href="#path5-4"></use>
                            <rect stroke="#2654B9" stroke-width="2" x="1" y="11" width="10" height="3" rx="1.5"></rect>
                        </g>
                        <g id="Rectangle-71">
                            <use fill="#FFFFFF" fill-rule="evenodd" xlink:href="#path5-5"></use>
                            <rect stroke="#2654B9" stroke-width="2" x="1" y="26" width="10" height="3" rx="1.5"></rect>
                        </g>
                        <g id="Rectangle-71">
                            <use fill="#FFFFFF" fill-rule="evenodd" xlink:href="#path5-6"></use>
                            <rect stroke="#2654B9" stroke-width="2" x="1" y="41" width="10" height="3" rx="1.5"></rect>
                        </g>
                        <g id="Rectangle-71">
                            <use fill="#FFFFFF" fill-rule="evenodd" xlink:href="#path5-7"></use>
                            <rect stroke="#2654B9" stroke-width="2" x="1" y="56" width="10" height="3" rx="1.5"></rect>
                        </g>
                        <g id="Rectangle-71">
                            <use fill="#FFFFFF" fill-rule="evenodd" xlink:href="#path5-8"></use>
                            <rect stroke="#2654B9" stroke-width="2" x="1" y="71" width="10" height="3" rx="1.5"></rect>
                        </g>
                    </g>
                    <g id="pen-" transform="translate(113.000000, 46.500000) rotate(19.000000) translate(-113.000000, -46.500000) translate(106.000000, 10.000000)">
                        <g id="Rectangle-72">
                            <use fill="#FFFFFF" fill-rule="evenodd" xlink:href="#path5-9"></use>
                            <rect stroke="#2654B9" stroke-width="2" x="1" y="1" width="8" height="71" rx="4"></rect>
                        </g>
                        <g id="Rectangle-74">
                            <use fill="#FFFFFF" fill-rule="evenodd" xlink:href="#path5-10"></use>
                            <rect stroke="#2654B9" stroke-width="2" x="10" y="4" width="3" height="31" rx="1.5"></rect>
                        </g>
                        <g id="Rectangle-73">
                            <use fill="#B6E4FF" fill-rule="evenodd" xlink:href="#path5-11"></use>
                            <rect stroke="#2654B9" stroke-width="2" x="1" y="24" width="8" height="4"></rect>
                        </g>
                    </g>
                </g>
            </g>
        </g>
    </g>
</svg>